# Blender v2.79 (sub 0) OBJ File: 'Candle1.blend'
# www.blender.org
mtllib Candle1.mtl
o Plane
v -0.104843 -0.005996 0.105511
v 0.104843 -0.005996 0.105511
v -0.104843 -0.005996 -0.104175
v 0.104843 -0.005996 -0.104175
v 0.000000 -0.005996 0.141255
v 0.000000 -0.005996 -0.139920
v -0.141900 -0.005996 0.000668
v 0.141900 -0.005996 0.000668
v -0.079852 0.049912 0.070651
v 0.079852 0.049912 0.070651
v -0.079852 0.049912 -0.089053
v 0.079852 0.049912 -0.089053
v 0.000000 0.049912 0.097875
v 0.000000 0.049912 -0.116277
v -0.108076 0.049912 -0.009201
v 0.108076 0.049912 -0.009201
v -0.067311 0.115327 0.058110
v 0.067311 0.115327 0.058110
v -0.067311 0.115327 -0.076511
v 0.067311 0.115327 -0.076511
v 0.000000 0.115327 0.081058
v 0.000000 0.115327 -0.099460
v -0.091102 0.115327 -0.009201
v 0.091102 0.115327 -0.009201
v -0.058982 0.186681 0.049781
v 0.058982 0.186681 0.049781
v -0.058982 0.186681 -0.068183
v 0.058982 0.186681 -0.068183
v 0.000000 0.186681 0.069890
v 0.000000 0.186681 -0.088292
v -0.079830 0.186681 -0.009201
v 0.079830 0.186681 -0.009201
v -0.049737 0.313762 0.040536
v 0.049737 0.313762 0.040536
v -0.049737 0.313762 -0.058937
v 0.049737 0.313762 -0.058937
v 0.000000 0.313762 0.057492
v 0.000000 0.313762 -0.075894
v -0.067316 0.313762 -0.009201
v 0.067316 0.313762 -0.009201
v -0.047621 0.346525 0.038421
v 0.047621 0.340968 0.038421
v -0.047621 0.356478 -0.056822
v 0.047621 0.346525 -0.056822
v 0.000000 0.340968 0.054656
v 0.000000 0.356478 -0.073058
v -0.064454 0.356478 -0.009201
v 0.064454 0.340968 -0.009201
v -0.001947 0.336956 -0.007254
v 0.001947 0.336729 -0.007254
v -0.001947 0.337363 -0.011148
v 0.001947 0.336956 -0.011148
v 0.000000 0.336729 -0.006590
v 0.000000 0.337363 -0.011812
v -0.002635 0.337363 -0.009201
v 0.002635 0.336729 -0.009201
v -0.000362 0.364754 -0.007334
v 0.002722 0.366715 -0.008696
v -0.002733 0.366808 -0.009676
v 0.000392 0.368643 -0.011159
v 0.001594 0.365353 -0.007645
v -0.001604 0.368170 -0.010726
v -0.002129 0.365550 -0.008154
v 0.002119 0.367973 -0.010217
vt 0.962090 0.460796
vt 0.945101 0.388915
vt 0.857532 0.388915
vt 0.847115 0.460796
vt 0.174872 0.895058
vt 0.177169 0.815842
vt 0.087928 0.806520
vt 0.069004 0.884000
vt 0.488697 0.857533
vt 0.629207 0.856068
vt 0.714713 0.752716
vt 0.714713 0.622177
vt 0.604425 0.540972
vt 0.463914 0.542437
vt 0.378409 0.645789
vt 0.378409 0.776327
vt 0.632458 0.456367
vt 0.580627 0.389050
vt 0.494012 0.399633
vt 0.518735 0.470263
vt 0.387135 0.399633
vt 0.378409 0.470263
vt 0.176911 0.964646
vt 0.037910 0.950126
vt 0.285048 0.964646
vt 0.257233 0.895058
vt 0.302588 0.448939
vt 0.267191 0.379531
vt 0.166962 0.388207
vt 0.170991 0.460331
vt 0.751789 0.374458
vt 0.708278 0.441816
vt 0.065603 0.388207
vt 0.037910 0.460331
vt 0.936836 0.309554
vt 0.936021 0.224842
vt 0.871339 0.224842
vt 0.863020 0.309554
vt 0.246595 0.815842
vt 0.247440 0.301915
vt 0.162953 0.309229
vt 0.487188 0.320467
vt 0.397096 0.320467
vt 0.077513 0.309229
vt 0.560200 0.311545
vt 0.773885 0.297368
vt 0.482343 0.235470
vt 0.476430 0.085509
vt 0.409861 0.085509
vt 0.403399 0.235470
vt 0.793233 0.214164
vt 0.182772 0.730890
vt 0.104574 0.722722
vt 0.243608 0.730890
vt 0.232762 0.217814
vt 0.158728 0.224222
vt 0.083860 0.224222
vt 0.546321 0.227652
vt 0.213788 0.068617
vt 0.209553 0.036662
vt 0.149779 0.041836
vt 0.151360 0.074021
vt 0.088228 0.074021
vt 0.530380 0.078917
vt 0.943132 0.075907
vt 0.888590 0.075907
vt 0.822726 0.066903
vt 0.195987 0.581114
vt 0.130046 0.574226
vt 0.247286 0.581114
vt 0.893943 0.685702
vt 0.867578 0.618008
vt 0.864973 0.617992
vt 0.830233 0.685300
vt 0.474925 0.035354
vt 0.411187 0.035354
vt 0.089020 0.035354
vt 0.526691 0.040604
vt 0.945377 0.037603
vt 0.892223 0.043976
vt 0.829161 0.035354
vt 0.201003 0.531039
vt 0.136412 0.535978
vt 0.250121 0.531039
vt 0.796546 0.756787
vt 0.794422 0.789251
vt 0.796662 0.790317
vt 0.797438 0.757576
vt 0.943895 0.587796
vt 0.869620 0.614005
vt 0.869620 0.616470
vt 0.943895 0.648087
vt 0.904530 0.541374
vt 0.868011 0.612107
vt 0.863364 0.616094
vt 0.790868 0.638879
vt 0.840820 0.540972
vt 0.865406 0.612091
vt 0.863350 0.613655
vt 0.790533 0.579232
vt 0.791951 0.789996
vt 0.790533 0.791751
vt 0.791309 0.793466
vt 0.793500 0.794403
vt 0.796020 0.793787
vt 0.797438 0.792031
vt 0.875286 0.793510
vt 0.875692 0.756411
vt 0.873258 0.757231
vt 0.873591 0.793572
vt 0.956288 0.899337
vt 0.956288 0.862990
vt 0.954707 0.864711
vt 0.953683 0.899377
vt 0.877863 0.792935
vt 0.877863 0.756703
vt 0.955193 0.792281
vt 0.956128 0.758100
vt 0.954395 0.756411
vt 0.953683 0.791990
vt 0.791626 0.756512
vt 0.794078 0.756411
vt 0.957798 0.792228
vt 0.957798 0.759314
vn 0.8394 0.4554 -0.2967
vn 0.3135 0.2364 -0.9197
vn 0.0000 -1.0000 0.0000
vn -0.7980 0.5326 0.2821
vn -0.8394 0.4554 -0.2967
vn 0.2996 0.3716 -0.8787
vn -0.2996 0.3716 -0.8787
vn 0.2601 0.5919 0.7629
vn 0.7980 0.5326 0.2821
vn -0.2601 0.5919 0.7629
vn 0.9325 0.1473 -0.3296
vn -0.3135 0.2364 -0.9197
vn 0.3135 0.2364 0.9197
vn -0.9158 0.2376 -0.3237
vn -0.3135 0.2364 0.9197
vn -0.9158 0.2376 0.3237
vn 0.9158 0.2376 -0.3237
vn 0.9158 0.2376 0.3237
vn -0.9388 0.0924 -0.3318
vn 0.9325 0.1473 0.3296
vn 0.3192 0.1465 -0.9363
vn -0.3192 0.1465 -0.9363
vn 0.3192 0.1465 0.9363
vn -0.9325 0.1473 -0.3296
vn -0.3192 0.1465 0.9363
vn -0.9325 0.1473 0.3296
vn 0.3211 0.0982 0.9419
vn -0.3213 0.0919 0.9425
vn -0.9388 0.0924 0.3318
vn 0.9388 0.0924 -0.3318
vn 0.9388 0.0924 0.3318
vn 0.3213 0.0919 -0.9425
vn -0.3213 0.0919 -0.9425
vn 0.3213 0.0919 0.9425
vn -0.0684 0.9974 -0.0242
vn -0.9410 0.0631 -0.3326
vn -0.3168 0.0891 0.9443
vn -0.9381 0.0714 0.3389
vn 0.9406 0.0896 -0.3274
vn 0.9382 0.0987 0.3316
vn 0.3284 0.0710 -0.9419
vn -0.3221 0.0627 -0.9446
vn -0.7444 0.0163 0.6675
vn 0.0975 0.9500 0.2965
vn 0.1011 0.9497 0.2964
vn -0.0235 0.9973 -0.0690
vn 0.2938 0.9502 0.1038
vn 0.1386 0.9880 -0.0684
vn 0.2941 0.9511 0.0948
vn -0.0677 0.9879 0.1392
vn -0.0861 0.7069 0.7021
vn 0.7694 0.0149 -0.6386
vn 0.9997 -0.0033 0.0232
vn 0.0582 0.0201 -0.9981
vn -0.4927 0.0174 -0.8700
vn 0.4808 0.0179 0.8766
vn -0.9997 -0.0037 -0.0257
vn -0.0922 0.0252 0.9954
usemtl Material.001
s off
f 4/1/1 12/2/1 16/3/1 8/4/1
f 14/5/2 22/6/2 20/7/2 12/8/2
f 7/9/3 3/10/3 6/11/3 4/12/3 8/13/3 2/14/3 5/15/3 1/16/3
f 1/17/4 9/18/4 15/19/4 7/20/4
f 7/20/5 15/19/5 11/21/5 3/22/5
f 6/23/6 14/5/6 12/8/6 4/24/6
f 3/25/7 11/26/7 14/5/7 6/23/7
f 2/27/8 10/28/8 13/29/8 5/30/8
f 8/4/9 16/3/9 10/31/9 2/32/9
f 5/30/10 13/29/10 9/33/10 1/34/10
f 20/35/11 28/36/11 32/37/11 24/38/11
f 11/26/12 19/39/12 22/6/12 14/5/12
f 10/28/13 18/40/13 21/41/13 13/29/13
f 15/19/14 23/42/14 19/43/14 11/21/14
f 13/29/15 21/41/15 17/44/15 9/33/15
f 9/18/16 17/45/16 23/42/16 15/19/16
f 12/2/17 20/35/17 24/38/17 16/3/17
f 16/3/18 24/38/18 18/46/18 10/31/18
f 31/47/19 39/48/19 35/49/19 27/50/19
f 24/38/20 32/37/20 26/51/20 18/46/20
f 22/6/21 30/52/21 28/53/21 20/7/21
f 19/39/22 27/54/22 30/52/22 22/6/22
f 18/40/23 26/55/23 29/56/23 21/41/23
f 23/42/24 31/47/24 27/50/24 19/43/24
f 21/41/25 29/56/25 25/57/25 17/44/25
f 17/45/26 25/58/26 31/47/26 23/42/26
f 34/59/27 42/60/27 45/61/27 37/62/27
f 29/56/28 37/62/28 33/63/28 25/57/28
f 25/58/29 33/64/29 39/48/29 31/47/29
f 28/36/30 36/65/30 40/66/30 32/37/30
f 32/37/31 40/66/31 34/67/31 26/51/31
f 30/52/32 38/68/32 36/69/32 28/53/32
f 27/54/33 35/70/33 38/68/33 30/52/33
f 26/55/34 34/59/34 37/62/34 29/56/34
f 48/71/35 56/72/35 50/73/35 42/74/35
f 39/48/36 47/75/36 43/76/36 35/49/36
f 37/62/37 45/61/37 41/77/37 33/63/37
f 33/64/38 41/78/38 47/75/38 39/48/38
f 36/65/39 44/79/39 48/80/39 40/66/39
f 40/66/40 48/80/40 42/81/40 34/67/40
f 38/68/41 46/82/41 44/83/41 36/69/41
f 35/70/42 43/84/42 46/82/42 38/68/42
f 49/85/43 57/86/43 63/87/43 55/88/43
f 46/89/44 54/90/44 52/91/44 44/92/44
f 43/93/45 51/94/45 54/90/45 46/89/45
f 42/74/46 50/73/46 53/95/46 45/96/46
f 47/97/47 55/98/47 51/94/47 43/93/47
f 45/96/48 53/95/48 49/99/48 41/100/48
f 41/100/49 49/99/49 55/98/49 47/97/49
f 44/92/50 52/91/50 56/72/50 48/71/50
f 63/87/51 57/86/51 61/101/51 58/102/51 64/103/51 60/104/51 62/105/51 59/106/51
f 52/107/52 60/108/52 64/109/52 56/110/52
f 56/111/53 64/112/53 58/113/53 50/114/53
f 54/115/54 62/116/54 60/108/54 52/107/54
f 51/117/55 59/118/55 62/119/55 54/120/55
f 50/121/56 58/102/56 61/101/56 53/122/56
f 55/123/57 63/124/57 59/118/57 51/117/57
f 53/122/58 61/101/58 57/86/58 49/85/58
